<?xml version="1.0" encoding="utf-8"?>
<!-- Generator: Adobe Illustrator 19.2.0, SVG Export Plug-In . SVG Version: 6.00 Build 0)  -->
<svg version="1.1" id="Layer_1" xmlns="http://www.w3.org/2000/svg" xmlns:xlink="http://www.w3.org/1999/xlink" x="0px" y="0px"
	 viewBox="0 0 99.8 49" style="enable-background:new 0 0 99.8 49;" xml:space="preserve">
<style type="text/css">
	.st0{fill:#97B926;}
	.st1{fill:#C5D887;}
	.st2{fill:#BBD170;}
	.st3{fill:#B0CA59;}
	.st4{fill:#A6C344;}
	.st5{fill:#C8DA8C;}
	.st6{fill:#D4E2A7;}
	.st7{fill:#E9641D;}
	.st8{fill:#573478;}
</style>
<title>logo</title>
<g>
	<path class="st0" d="M51.4,0c1.2,0.1,2.2,1.1,2.2,2.4c0,7,0,14,0,21c0,0.2,0,0.5,0,0.7c0,0.6,0.5,1,1.1,1c0.8,0,1.5,0,2.3,0h6.3
		c1.3,0,2.4,1.1,2.3,2.4c0,0,0,0,0,0.1c0,0.7,0,1.3,0,2c0,0.8,0,1.7,0,2.5c-0.1,1.2-1.1,2.1-2.2,2.1h-14c-1.2,0-2.3,0-3.5,0
		c-1.3,0-2.4-1.1-2.5-2.4c0,0,0,0,0-0.1c0-9.8,0-19.5,0-29.3c0-0.9,0.4-1.7,1.2-2.1c0.3-0.2,0.6-0.3,1-0.3c0.1,0,0.1,0,0.2,0h0.1
		c0.1,0,0.2,0,0.3,0c0.1,0,0.3,0,0.4,0h0.9c0.2,0,0.5,0,0.7,0h2.1c0.1,0,0.2,0,0.3,0h0.3c0.1,0,0.2,0,0.3,0C51.3,0,51.4,0,51.4,0z"
		/>
	<path class="st1" d="M49.2,0h-1.1l0,0H49.2L49.2,0L49.2,0z"/>
	<path class="st2" d="M49.2,0L49.2,0h1l0,0H49.2z"/>
	<path class="st3" d="M48.2,0L48.2,0c-0.2,0-0.5,0-0.7,0H48.2z"/>
	<path class="st3" d="M46.5,0c-0.1,0-0.3,0-0.4,0l0,0H46.5L46.5,0z"/>
	<path class="st4" d="M51.2,0c-0.1,0-0.2,0-0.3,0H51.2L51.2,0L51.2,0z"/>
	<path class="st4" d="M50.2,0L50.2,0h0.3C50.5,0.1,50.4,0.1,50.2,0z"/>
	<path class="st5" d="M46.1,0L46.1,0c-0.1,0-0.2,0-0.3,0H46.1L46.1,0z"/>
	<path class="st6" d="M51.2,0L51.2,0h0.2l0,0H51.2z"/>
	<path class="st7" d="M79.4,33.1L78.2,35c-2.3,3.4-4.6,6.9-6.8,10.4c-0.5,0.8-1.2,1.4-2,1.8c-0.7,0.4-1.6,0.3-2.1-0.3
		c-0.5-0.5-1-1-1.3-1.6c-0.8-1.2-1.6-2.4-2.3-3.7c-0.4-0.8-0.6-1.8-0.4-2.7c0.3-1.7,1.1-3.2,2.2-4.5c3-3.4,6-6.8,9-10.3
		c0.1-0.1,0.1-0.3,0-0.4c-2.1-4-4.2-8.1-6.3-12.1c-0.6-1.2-0.9-2.6-0.7-4c0.1-1.2,0.9-2.3,2.1-2.6c1.3-0.5,2.7-0.4,3.8,0.3
		c0.5,0.3,1,0.8,1.3,1.3l6.4,9.4c0.2,0.2,0.1,0.3,0.3,0c2.9-3.3,5.8-6.7,8.8-10c0.7-0.8,1.6-1.4,2.6-1.8c1-0.3,2-0.3,2.9,0.1
		c0.1,0,0.2,0.1,0.2,0.2c0.5,1.1,0.6,2.4,0.2,3.6c-0.4,1.3-1,2.5-1.9,3.5c-2.6,3.2-5,6.7-7.4,10.1c-0.3,0.4-0.5,0.8-0.8,1.2
		c-0.1,0.1-0.1,0.4,0,0.5l0.8,1.2l11.2,16.5c0.5,0.6,0.9,1.3,1.2,2.1c0.2,0.4,0.3,0.9,0.3,1.3c0.1,1-0.5,1.9-1.5,2.2
		c-1.4,0.6-2.9,1.1-4.4,1.5c-1.1,0.3-2.3,0.5-3.4,0.7c-1.1,0.2-2.2-0.1-3-0.8c-0.5-0.4-1-1-1.3-1.6c-2.1-4.5-4.5-8.9-6.7-13.3
		L79.4,33.1z"/>
	<path class="st8" d="M38.9,14.7c-0.9-0.8-2.1-1.3-3.4-1.2c-2.3,0-3.8,1.1-4.3,3.1c-1.3,5.3-2.4,8.6-3.1,11.4l-0.6-3.1
		c-0.5-2.9-1-5.4-1.4-7.2c-0.9-3.9-1.3-5.2-4.9-4.7c-2.5,0.1-4.5,1.8-5.1,4.2c-1.2,3.7-2.3,7-3.2,9.9c-0.2-1.2-0.4-2.2-0.5-3
		c0-0.2-0.1-1.1-0.4-3.7c-0.1-1.3-0.3-2.6-0.6-3.8C10.9,14,9,13.1,6.9,12.7c-1.3-0.3-4.4-0.8-5.4,0c-0.9,0.8-1.5,2-1.5,3.2
		c0,1.3,0.2,2.7,0.4,4c1.2,7.5,4.1,14.2,4.6,15.9c0.6,2.2,1.4,4.3,2.5,6.3c1.2,1.9,2.3,2.8,3.6,2.8c1.7,0,3.2-0.8,4.1-2.2
		c0.6-0.6,1.1-1.3,1.4-2.1c1.4-3.6,2.5-6.5,3.4-8.7c0.3,2,0.7,4,1.2,5.9c1.4,4.8,3.5,7.2,6.3,7.3h0.1c1.7,0,3.3-0.8,4.2-2.2
		c1.2-1.6,2.1-3.4,2.8-5.3c1.9-5.8,3.8-11.6,5.7-18.6l0,0c0.1-0.3,0.2-0.7,0.2-1C40.5,16.7,40,15.5,38.9,14.7z"/>
</g>
</svg>
