<svg xmlns="http://www.w3.org/2000/svg" width="99.79" height="49.01" viewBox="0 0 99.79 49.01">
  <title>logo-grey</title>
  <g>
    <path d="M1229.2,1118.21a2.28,2.28,0,0,1,2.16,2.37q0,10.5,0,21a3.34,3.34,0,0,0,0,.68,1.09,1.09,0,0,0,1.12,1c0.75,0,1.5,0,2.26,0h6.26a2.37,2.37,0,0,1,2.33,2.46c0,0.66,0,1.33,0,2,0,0.85,0,1.7,0,2.54a2.3,2.3,0,0,1-2.24,2.12h-14c-1.17,0-2.33,0-3.5,0a2.43,2.43,0,0,1-2.46-2.47q0-14.64,0-29.28a2.33,2.33,0,0,1,1.18-2.09,2.17,2.17,0,0,1,1-.29,0.21,0.21,0,0,0,.2,0h0.09a0.71,0.71,0,0,0,.28,0,1.4,1.4,0,0,0,.39,0h0.93a4.67,4.67,0,0,0,.72,0H1228a1.1,1.1,0,0,0,.35,0h0.31a0.92,0.92,0,0,0,.32,0A0.77,0.77,0,0,1,1229.2,1118.21Z" transform="translate(-1177.75 -1118.17)" style="fill: #b7b7b7"/>
    <path d="M1227,1118.21h-1.1s0,0,0,0H1227s0,0,0,0h0Z" transform="translate(-1177.75 -1118.17)" style="fill: #b7b7b7"/>
    <path d="M1227,1118.21v0h1s0,0,0,0h-1Z" transform="translate(-1177.75 -1118.17)" style="fill: #b7b7b7"/>
    <path d="M1225.92,1118.17a0.29,0.29,0,0,0,0,0,2.19,2.19,0,0,1-.71,0h0.71Z" transform="translate(-1177.75 -1118.17)" style="fill: #b7b7b7"/>
    <path d="M1224.28,1118.17a0.75,0.75,0,0,1-.4,0,0,0,0,0,1,0,0h0.41Z" transform="translate(-1177.75 -1118.17)" style="fill: #b7b7b7"/>
    <path d="M1229,1118.21a0.45,0.45,0,0,1-.32,0H1229a0,0,0,0,1,0,0h0Z" transform="translate(-1177.75 -1118.17)" style="fill: #b7b7b7"/>
    <path d="M1228,1118.21v0h0.31A0.47,0.47,0,0,1,1228,1118.21Z" transform="translate(-1177.75 -1118.17)" style="fill: #b7b7b7"/>
    <path d="M1223.89,1118.17a0.24,0.24,0,0,1,0,0,0.32,0.32,0,0,1-.26,0h0.27Z" transform="translate(-1177.75 -1118.17)" style="fill: #b7b7b7"/>
    <path d="M1229,1118.21v0h0.22v0H1229Z" transform="translate(-1177.75 -1118.17)" style="fill: #b7b7b7"/>
    <path d="M1257.17,1151.25l-1.27,1.9c-2.3,3.44-4.55,6.91-6.82,10.36a5.09,5.09,0,0,1-2,1.82,1.69,1.69,0,0,1-2.11-.28,10.13,10.13,0,0,1-1.34-1.64,35.56,35.56,0,0,1-2.27-3.66,4.27,4.27,0,0,1-.4-2.71,8.44,8.44,0,0,1,2.25-4.47q4.52-5.13,9-10.27a0.27,0.27,0,0,0,0-.36c-2.08-4-4.2-8.06-6.32-12.09a6.86,6.86,0,0,1-.74-4,2.89,2.89,0,0,1,2.11-2.58,4.32,4.32,0,0,1,3.83.31,4.49,4.49,0,0,1,1.34,1.33l6.38,9.41c0.16,0.24.12,0.26,0.34,0,2.95-3.3,5.84-6.66,8.76-10a5.93,5.93,0,0,1,2.6-1.77,4.35,4.35,0,0,1,2.94.13,0.32,0.32,0,0,1,.18.21,4.81,4.81,0,0,1,.23,3.55,9.89,9.89,0,0,1-1.88,3.5c-2.64,3.22-5,6.65-7.37,10.07-0.26.38-.51,0.77-0.79,1.15a0.4,0.4,0,0,0,0,.52l0.82,1.21,11.19,16.46a12.3,12.3,0,0,1,1.25,2.05,4,4,0,0,1,.33,1.3,2.19,2.19,0,0,1-1.46,2.25,23.72,23.72,0,0,1-4.39,1.47c-1.13.27-2.27,0.5-3.42,0.7a3.73,3.73,0,0,1-3-.85,4.42,4.42,0,0,1-1.27-1.62c-2.13-4.48-4.46-8.86-6.72-13.27Z" transform="translate(-1177.75 -1118.17)" style="fill: #b7b7b7"/>
    <path d="M1216.7,1132.83a5.05,5.05,0,0,0-3.36-1.24c-2.29,0-3.84,1.09-4.34,3.07-1.35,5.26-2.38,8.63-3.09,11.38l-0.55-3.14c-0.51-2.94-1-5.37-1.44-7.22-0.93-3.87-1.29-5.22-4.91-4.68a5.49,5.49,0,0,0-5.11,4.21c-1.17,3.68-2.26,7-3.25,9.86q-0.29-1.85-.47-3c0-.25-0.14-1.11-0.4-3.72a33.71,33.71,0,0,0-.61-3.84c-0.55-2.36-2.42-3.23-4.56-3.66-1.26-.26-4.44-0.82-5.37,0a4.13,4.13,0,0,0-1.46,3.22,26.94,26.94,0,0,0,.39,4c1.17,7.48,4.1,14.25,4.64,15.9a29,29,0,0,0,2.52,6.33c1.15,1.9,2.3,2.82,3.56,2.75a4.93,4.93,0,0,0,4.1-2.23,5.1,5.1,0,0,0,1.39-2.12q2.09-5.44,3.42-8.74a55,55,0,0,0,1.22,5.94c1.43,4.78,3.54,7.23,6.29,7.28h0.08a5,5,0,0,0,4.21-2.17,20.09,20.09,0,0,0,2.78-5.26c1.91-5.76,3.83-11.6,5.71-18.64h0a4.17,4.17,0,0,0,.17-1A4.11,4.11,0,0,0,1216.7,1132.83Z" transform="translate(-1177.75 -1118.17)" style="fill: #b7b7b7"/>
  </g>
</svg>
